<?xml version="1.0" encoding="UTF-8" standalone="no"?>
<svg
   xmlns:dc="http://purl.org/dc/elements/1.1/"
   xmlns:cc="http://creativecommons.org/ns#"
   xmlns:rdf="http://www.w3.org/1999/02/22-rdf-syntax-ns#"
   xmlns:svg="http://www.w3.org/2000/svg"
   xmlns="http://www.w3.org/2000/svg"
   xmlns:xlink="http://www.w3.org/1999/xlink"
   xmlns:sodipodi="http://sodipodi.sourceforge.net/DTD/sodipodi-0.dtd"
   xmlns:inkscape="http://www.inkscape.org/namespaces/inkscape"
   width="1200"
   height="1200"
   viewBox="0 0 1200 1200"
   version="1.1"
   id="svg361"
   sodipodi:docname="Arrhenius-black-nokey-Revision-1.svg"
   inkscape:version="0.92.4 (5da689c313, 2019-01-14)">
  <metadata
     id="metadata367">
    <rdf:RDF>
      <cc:Work
         rdf:about="">
        <dc:format>image/svg+xml</dc:format>
        <dc:type
           rdf:resource="http://purl.org/dc/dcmitype/StillImage" />
      </cc:Work>
    </rdf:RDF>
  </metadata>
  <defs
     id="defs365" />
  <sodipodi:namedview
     pagecolor="#ffffff"
     bordercolor="#666666"
     borderopacity="1"
     objecttolerance="10"
     gridtolerance="10"
     guidetolerance="10"
     inkscape:pageopacity="0"
     inkscape:pageshadow="2"
     inkscape:window-width="1366"
     inkscape:window-height="689"
     id="namedview363"
     showgrid="false"
     inkscape:zoom="0.27812867"
     inkscape:cx="681.53258"
     inkscape:cy="538.2541"
     inkscape:window-x="0"
     inkscape:window-y="27"
     inkscape:window-maximized="1"
     inkscape:current-layer="svg361" />
  <title
     id="title2">Gnuplot</title>
  <desc
     id="desc4">Produced by GNUPLOT 5.2 patchlevel 6 </desc>
  <g
     id="gnuplot_canvas"
     inkscape:export-xdpi="300"
     inkscape:export-ydpi="300">
    <rect
       x="0"
       y="0"
       width="1200"
       height="1200"
       fill="none"
       id="rect6" />
    <defs
       id="defs34">
      <circle
         id="gpDot"
         r="0.5"
         stroke-width="0.5"
         stroke="currentColor" />
      <path
         id="gpPt0"
         stroke-width="0.095"
         stroke="currentColor"
         d="M-1,0 h2 M0,-1 v2" />
      <path
         id="gpPt1"
         stroke-width="0.095"
         stroke="currentColor"
         d="M-1,-1 L1,1 M1,-1 L-1,1" />
      <path
         id="gpPt2"
         stroke-width="0.095"
         stroke="currentColor"
         d="M-1,0 L1,0 M0,-1 L0,1 M-1,-1 L1,1 M-1,1 L1,-1" />
      <rect
         id="gpPt3"
         stroke-width="0.095"
         stroke="currentColor"
         x="-1"
         y="-1"
         width="2"
         height="2" />
      <rect
         id="gpPt4"
         stroke-width="0.095"
         stroke="currentColor"
         fill="currentColor"
         x="-1"
         y="-1"
         width="2"
         height="2" />
      <circle
         id="gpPt5"
         stroke-width="0.095"
         stroke="currentColor"
         cx="0"
         cy="0"
         r="1" />
      <use
         xlink:href="#gpPt5"
         id="gpPt6"
         fill="currentColor"
         stroke="none" />
      <path
         id="gpPt7"
         stroke-width="0.095"
         stroke="currentColor"
         d="M0,-1.33 L-1.33,0.67 L1.33,0.67 z" />
      <use
         xlink:href="#gpPt7"
         id="gpPt8"
         fill="currentColor"
         stroke="none" />
      <use
         xlink:href="#gpPt7"
         id="gpPt9"
         stroke="currentColor"
         transform="rotate(180)" />
      <use
         xlink:href="#gpPt9"
         id="gpPt10"
         fill="currentColor"
         stroke="none" />
      <use
         xlink:href="#gpPt3"
         id="gpPt11"
         stroke="currentColor"
         transform="rotate(45)" />
      <use
         xlink:href="#gpPt11"
         id="gpPt12"
         fill="currentColor"
         stroke="none" />
      <path
         id="gpPt13"
         stroke-width="0.095"
         stroke="currentColor"
         d="M0,1.330 L1.265,0.411 L0.782,-1.067 L-0.782,-1.076 L-1.265,0.411 z" />
      <use
         xlink:href="#gpPt13"
         id="gpPt14"
         fill="currentColor"
         stroke="none" />
      <filter
         id="textbox"
         filterUnits="objectBoundingBox"
         x="0"
         y="0"
         height="1"
         width="1">
        <feFlood
           flood-color="white"
           flood-opacity="1"
           result="bgnd"
           id="feFlood24" />
        <feComposite
           in="SourceGraphic"
           in2="bgnd"
           operator="atop"
           id="feComposite26" />
      </filter>
      <filter
         id="greybox"
         filterUnits="objectBoundingBox"
         x="0"
         y="0"
         height="1"
         width="1">
        <feFlood
           flood-color="lightgrey"
           flood-opacity="1"
           result="grey"
           id="feFlood29" />
        <feComposite
           in="SourceGraphic"
           in2="grey"
           operator="atop"
           id="feComposite31" />
      </filter>
    </defs>
    <g
       fill="none"
       color="white"
       stroke="black"
       stroke-width="1.00"
       stroke-linecap="butt"
       stroke-linejoin="miter"
       id="g36" />
    <g
       fill="none"
       color="black"
       stroke="currentColor"
       stroke-width="1.00"
       stroke-linecap="butt"
       stroke-linejoin="miter"
       id="g46">
      <path
         stroke="black"
         d="M149.2,1001.6 L170.2,1001.6 M1141.4,1001.6 L1120.4,1001.6  "
         id="path38" />
      <g
         transform="translate(129.7,1010.7)"
         stroke="none"
         fill="black"
         font-family="Helvetica"
         font-size="28.00"
         text-anchor="end"
         id="g44">
        <text
           id="text42">
          <tspan
             font-family="Helvetica"
             id="tspan40"> 7</tspan>
        </text>
      </g>
    </g>
    <g
       fill="none"
       color="black"
       stroke="currentColor"
       stroke-width="1.00"
       stroke-linecap="butt"
       stroke-linejoin="miter"
       id="g56">
      <path
         stroke="black"
         d="M149.2,873.7 L170.2,873.7 M1141.4,873.7 L1120.4,873.7  "
         id="path48" />
      <g
         transform="translate(129.7,882.8)"
         stroke="none"
         fill="black"
         font-family="Helvetica"
         font-size="28.00"
         text-anchor="end"
         id="g54">
        <text
           id="text52">
          <tspan
             font-family="Helvetica"
             id="tspan50"> 8</tspan>
        </text>
      </g>
    </g>
    <g
       fill="none"
       color="black"
       stroke="currentColor"
       stroke-width="1.00"
       stroke-linecap="butt"
       stroke-linejoin="miter"
       id="g66">
      <path
         stroke="black"
         d="M149.2,745.8 L170.2,745.8 M1141.4,745.8 L1120.4,745.8  "
         id="path58" />
      <g
         transform="translate(129.7,754.9)"
         stroke="none"
         fill="black"
         font-family="Helvetica"
         font-size="28.00"
         text-anchor="end"
         id="g64">
        <text
           id="text62">
          <tspan
             font-family="Helvetica"
             id="tspan60"> 9</tspan>
        </text>
      </g>
    </g>
    <g
       fill="none"
       color="black"
       stroke="currentColor"
       stroke-width="1.00"
       stroke-linecap="butt"
       stroke-linejoin="miter"
       id="g76">
      <path
         stroke="black"
         d="M149.2,617.8 L170.2,617.8 M1141.4,617.8 L1120.4,617.8  "
         id="path68" />
      <g
         transform="translate(129.7,626.9)"
         stroke="none"
         fill="black"
         font-family="Helvetica"
         font-size="28.00"
         text-anchor="end"
         id="g74">
        <text
           id="text72">
          <tspan
             font-family="Helvetica"
             id="tspan70"> 10</tspan>
        </text>
      </g>
    </g>
    <g
       fill="none"
       color="black"
       stroke="currentColor"
       stroke-width="1.00"
       stroke-linecap="butt"
       stroke-linejoin="miter"
       id="g86">
      <path
         stroke="black"
         d="M149.2,489.9 L170.2,489.9 M1141.4,489.9 L1120.4,489.9  "
         id="path78" />
      <g
         transform="translate(129.7,499.0)"
         stroke="none"
         fill="black"
         font-family="Helvetica"
         font-size="28.00"
         text-anchor="end"
         id="g84">
        <text
           id="text82">
          <tspan
             font-family="Helvetica"
             id="tspan80"> 11</tspan>
        </text>
      </g>
    </g>
    <g
       fill="none"
       color="black"
       stroke="currentColor"
       stroke-width="1.00"
       stroke-linecap="butt"
       stroke-linejoin="miter"
       id="g96">
      <path
         stroke="black"
         d="M149.2,361.9 L170.2,361.9 M1141.4,361.9 L1120.4,361.9  "
         id="path88" />
      <g
         transform="translate(129.7,371.0)"
         stroke="none"
         fill="black"
         font-family="Helvetica"
         font-size="28.00"
         text-anchor="end"
         id="g94">
        <text
           id="text92">
          <tspan
             font-family="Helvetica"
             id="tspan90"> 12</tspan>
        </text>
      </g>
    </g>
    <g
       fill="none"
       color="black"
       stroke="currentColor"
       stroke-width="1.00"
       stroke-linecap="butt"
       stroke-linejoin="miter"
       id="g106">
      <path
         stroke="black"
         d="M149.2,234.0 L170.2,234.0 M1141.4,234.0 L1120.4,234.0  "
         id="path98" />
      <g
         transform="translate(129.7,243.1)"
         stroke="none"
         fill="black"
         font-family="Helvetica"
         font-size="28.00"
         text-anchor="end"
         id="g104">
        <text
           id="text102">
          <tspan
             font-family="Helvetica"
             id="tspan100"> 13</tspan>
        </text>
      </g>
    </g>
    <g
       fill="none"
       color="black"
       stroke="currentColor"
       stroke-width="1.00"
       stroke-linecap="butt"
       stroke-linejoin="miter"
       id="g116">
      <path
         stroke="black"
         d="M149.2,106.1 L170.2,106.1 M1141.4,106.1 L1120.4,106.1  "
         id="path108" />
      <g
         transform="translate(129.7,115.2)"
         stroke="none"
         fill="black"
         font-family="Helvetica"
         font-size="28.00"
         text-anchor="end"
         id="g114">
        <text
           id="text112">
          <tspan
             font-family="Helvetica"
             id="tspan110"> 14</tspan>
        </text>
      </g>
    </g>
    <g
       fill="none"
       color="black"
       stroke="currentColor"
       stroke-width="1.00"
       stroke-linecap="butt"
       stroke-linejoin="miter"
       id="g126">
      <path
         stroke="black"
         d="M149.2,1065.6 L149.2,1044.6 M149.2,42.1 L149.2,63.1  "
         id="path118" />
      <g
         transform="translate(149.2,1116.7)"
         stroke="none"
         fill="black"
         font-family="Helvetica"
         font-size="28.00"
         text-anchor="middle"
         id="g124">
        <text
           id="text122">
          <tspan
             font-family="Helvetica"
             id="tspan120"> 0.00278</tspan>
        </text>
      </g>
    </g>
    <g
       fill="none"
       color="black"
       stroke="currentColor"
       stroke-width="1.00"
       stroke-linecap="butt"
       stroke-linejoin="miter"
       id="g136">
      <path
         stroke="black"
         d="M347.6,1065.6 L347.6,1044.6 M347.6,42.1 L347.6,63.1  "
         id="path128" />
      <g
         transform="translate(347.6,1116.7)"
         stroke="none"
         fill="black"
         font-family="Helvetica"
         font-size="28.00"
         text-anchor="middle"
         id="g134">
        <text
           id="text132">
          <tspan
             font-family="Helvetica"
             id="tspan130"> 0.0028</tspan>
        </text>
      </g>
    </g>
    <g
       fill="none"
       color="black"
       stroke="currentColor"
       stroke-width="1.00"
       stroke-linecap="butt"
       stroke-linejoin="miter"
       id="g146">
      <path
         stroke="black"
         d="M546.1,1065.6 L546.1,1044.6 M546.1,42.1 L546.1,63.1  "
         id="path138" />
      <g
         transform="translate(546.1,1116.7)"
         stroke="none"
         fill="black"
         font-family="Helvetica"
         font-size="28.00"
         text-anchor="middle"
         id="g144">
        <text
           id="text142">
          <tspan
             font-family="Helvetica"
             id="tspan140"> 0.00282</tspan>
        </text>
      </g>
    </g>
    <g
       fill="none"
       color="black"
       stroke="currentColor"
       stroke-width="1.00"
       stroke-linecap="butt"
       stroke-linejoin="miter"
       id="g156">
      <path
         stroke="black"
         d="M744.5,1065.6 L744.5,1044.6 M744.5,42.1 L744.5,63.1  "
         id="path148" />
      <g
         transform="translate(744.5,1116.7)"
         stroke="none"
         fill="black"
         font-family="Helvetica"
         font-size="28.00"
         text-anchor="middle"
         id="g154">
        <text
           id="text152">
          <tspan
             font-family="Helvetica"
             id="tspan150"> 0.00284</tspan>
        </text>
      </g>
    </g>
    <g
       fill="none"
       color="black"
       stroke="currentColor"
       stroke-width="1.00"
       stroke-linecap="butt"
       stroke-linejoin="miter"
       id="g166">
      <path
         stroke="black"
         d="M943.0,1065.6 L943.0,1044.6 M943.0,42.1 L943.0,63.1  "
         id="path158" />
      <g
         transform="translate(943.0,1116.7)"
         stroke="none"
         fill="black"
         font-family="Helvetica"
         font-size="28.00"
         text-anchor="middle"
         id="g164">
        <text
           id="text162">
          <tspan
             font-family="Helvetica"
             id="tspan160"> 0.00286</tspan>
        </text>
      </g>
    </g>
    <g
       fill="none"
       color="black"
       stroke="currentColor"
       stroke-width="1.00"
       stroke-linecap="butt"
       stroke-linejoin="miter"
       id="g176">
      <path
         stroke="black"
         d="M1141.4,1065.6 L1141.4,1044.6 M1141.4,42.1 L1141.4,63.1  "
         id="path168" />
      <g
         transform="translate(1141.4,1116.7)"
         stroke="none"
         fill="black"
         font-family="Helvetica"
         font-size="28.00"
         text-anchor="middle"
         id="g174">
        <text
           id="text172">
          <tspan
             font-family="Helvetica"
             id="tspan170"> 0.00288</tspan>
        </text>
      </g>
    </g>
    <g
       fill="none"
       color="black"
       stroke="currentColor"
       stroke-width="1.00"
       stroke-linecap="butt"
       stroke-linejoin="miter"
       id="g178" />
    <g
       fill="none"
       color="black"
       stroke="currentColor"
       stroke-width="1.00"
       stroke-linecap="butt"
       stroke-linejoin="miter"
       id="g218">
      <path
         stroke="black"
         d="M149.2,42.1 L149.2,1065.6 L1141.4,1065.6 L1141.4,42.1 L149.2,42.1 Z  "
         id="path180" />
      <g
         transform="translate(347.6,825.2)"
         stroke="none"
         fill="black"
         font-family="Helvetica"
         font-size="28.00"
         text-anchor="start"
         id="g186">
        <text
           id="text184">
          <tspan
             font-family="Helvetica"
             font-weight="bold"
             id="tspan182">3</tspan>
        </text>
      </g>
      <g
         transform="translate(347.6,882.8)"
         stroke="none"
         fill="black"
         font-family="Helvetica"
         font-size="28.00"
         text-anchor="start"
         id="g192">
        <text
           id="text190">
          <tspan
             font-family="Helvetica"
             font-weight="bold"
             id="tspan188">2</tspan>
        </text>
      </g>
      <g
         transform="translate(347.6,946.8)"
         stroke="none"
         fill="black"
         font-family="Helvetica"
         font-size="28.00"
         text-anchor="start"
         id="g198">
        <text
           id="text196">
          <tspan
             font-family="Helvetica"
             font-weight="bold"
             id="tspan194">1c</tspan>
        </text>
      </g>
      <g
         transform="translate(347.6,716.5)"
         stroke="none"
         fill="black"
         font-family="Helvetica"
         font-size="28.00"
         text-anchor="start"
         id="g204">
        <text
           id="text202">
          <tspan
             font-family="Helvetica"
             font-weight="bold"
             id="tspan200">1b</tspan>
        </text>
      </g>
      <g
         transform="translate(347.6,217.5)"
         stroke="none"
         fill="black"
         font-family="Helvetica"
         font-size="28.00"
         text-anchor="start"
         id="g210">
        <text
           id="text208">
          <tspan
             font-family="Helvetica"
             font-weight="bold"
             id="tspan206">1a</tspan>
        </text>
      </g>
      <g
         transform="translate(347.6,562.9)"
         stroke="none"
         fill="black"
         font-family="Helvetica"
         font-size="28.00"
         text-anchor="start"
         id="g216">
        <text
           id="text214">
          <tspan
             font-family="Helvetica"
             font-weight="bold"
             id="tspan212">1d</tspan>
        </text>
      </g>
    </g>
    <g
       fill="none"
       color="black"
       stroke="currentColor"
       stroke-width="1.00"
       stroke-linecap="butt"
       stroke-linejoin="miter"
       id="g226">
      <g
         transform="translate(37.6,553.9) rotate(270)"
         stroke="none"
         fill="black"
         font-family="Helvetica-Bold"
         font-size="26.00"
         text-anchor="middle"
         id="g224">
        <text
           id="text222">
          <tspan
             font-family="Helvetica-Bold"
             id="tspan220">-ln(k)</tspan>
        </text>
      </g>
    </g>
    <g
       fill="none"
       color="black"
       stroke="currentColor"
       stroke-width="1.00"
       stroke-linecap="butt"
       stroke-linejoin="miter"
       id="g234">
      <g
         transform="translate(645.3,1179.1)"
         stroke="none"
         fill="black"
         font-family="Helvetica-Bold"
         font-size="26.00"
         text-anchor="middle"
         id="g232">
        <text
           id="text230">
          <tspan
             font-family="Helvetica-Bold"
             id="tspan228">1/T</tspan>
        </text>
      </g>
    </g>
    <g
       fill="none"
       color="black"
       stroke="currentColor"
       stroke-width="1.00"
       stroke-linecap="butt"
       stroke-linejoin="miter"
       id="g236" />
    <g
       id="gnuplot_plot_1">
      <title
         id="title238"> 2-NO2C6H4N2+ TfO-  1a</title>
      <g
         fill="none"
         color="white"
         stroke="currentColor"
         stroke-width="3.50"
         stroke-linecap="butt"
         stroke-linejoin="miter"
         id="g240" />
      <g
         fill="none"
         color="black"
         stroke="currentColor"
         stroke-width="3.50"
         stroke-linecap="butt"
         stroke-linejoin="miter"
         id="g248">
        <use
           xlink:href="#gpPt5"
           transform="translate(1065.2,105.7) scale(10.50)"
           color="rgb(  0,   0,   0)"
           id="use242" />
        <use
           xlink:href="#gpPt5"
           transform="translate(661.7,203.3) scale(10.50)"
           color="rgb(  0,   0,   0)"
           id="use244" />
        <use
           xlink:href="#gpPt5"
           transform="translate(269.5,243.0) scale(10.50)"
           color="rgb(  0,   0,   0)"
           id="use246" />
      </g>
    </g>
    <g
       id="gnuplot_plot_2">
      <title
         id="title251">gnuplot_plot_2</title>
      <g
         fill="none"
         color="black"
         stroke="currentColor"
         stroke-width="3.50"
         stroke-linecap="butt"
         stroke-linejoin="miter"
         id="g255">
        <path
           stroke="rgb(  0,   0,   0)"
           d="M149.2,273.3 L159.2,271.5 L169.2,269.8 L179.3,268.1 L189.3,266.3 L199.3,264.6 L209.3,262.9 L219.4,261.1   L229.4,259.4 L239.4,257.7 L249.4,255.9 L259.4,254.2 L269.5,252.5 L279.5,250.7 L289.5,249.0 L299.5,247.3   L309.6,245.5 L319.6,243.8 L329.6,242.1 L339.6,240.3 L349.6,238.6 L359.7,236.9 L369.7,235.1 L379.7,233.4   L389.7,231.7 L399.8,230.0 L409.8,228.2 L419.8,226.5 L429.8,224.8 L439.8,223.0 L449.9,221.3 L459.9,219.6   L469.9,217.8 L479.9,216.1 L490.0,214.4 L500.0,212.6 L510.0,210.9 L520.0,209.2 L530.0,207.4 L540.1,205.7   L550.1,204.0 L560.1,202.2 L570.1,200.5 L580.2,198.8 L590.2,197.0 L600.2,195.3 L610.2,193.6 L620.2,191.8   L630.3,190.1 L640.3,188.4 L650.3,186.6 L660.3,184.9 L670.4,183.2 L680.4,181.4 L690.4,179.7 L700.4,178.0   L710.4,176.2 L720.5,174.5 L730.5,172.8 L740.5,171.0 L750.5,169.3 L760.6,167.6 L770.6,165.8 L780.6,164.1   L790.6,162.4 L800.6,160.6 L810.7,158.9 L820.7,157.2 L830.7,155.4 L840.7,153.7 L850.8,152.0 L860.8,150.2   L870.8,148.5 L880.8,146.8 L890.8,145.0 L900.9,143.3 L910.9,141.6 L920.9,139.8 L930.9,138.1 L941.0,136.4   L951.0,134.6 L961.0,132.9 L971.0,131.2 L981.0,129.4 L991.1,127.7 L1001.1,126.0 L1011.1,124.2 L1021.1,122.5   L1031.2,120.8 L1041.2,119.0 L1051.2,117.3 L1061.2,115.6 L1071.2,113.8 L1081.3,112.1 L1091.3,110.4 L1101.3,108.6   L1111.3,106.9 L1121.4,105.2 L1131.4,103.4 L1141.4,101.7  "
           id="path253" />
      </g>
    </g>
    <g
       id="gnuplot_plot_3">
      <title
         id="title258"> 3-NO2C6H4N2+ TfO-  1b</title>
      <g
         fill="none"
         color="black"
         stroke="currentColor"
         stroke-width="3.50"
         stroke-linecap="butt"
         stroke-linejoin="miter"
         id="g266">
        <use
           xlink:href="#gpPt4"
           transform="translate(1065.2,566.9) scale(10.50)"
           color="rgb(  0,   0,   0)"
           id="use260" />
        <use
           xlink:href="#gpPt4"
           transform="translate(661.7,664.6) scale(10.50)"
           color="rgb(  0,   0,   0)"
           id="use262" />
        <use
           xlink:href="#gpPt4"
           transform="translate(269.5,764.1) scale(10.50)"
           color="rgb(  0,   0,   0)"
           id="use264" />
      </g>
    </g>
    <g
       id="gnuplot_plot_4">
      <title
         id="title269">gnuplot_plot_4</title>
      <g
         fill="none"
         color="black"
         stroke="currentColor"
         stroke-width="3.50"
         stroke-linecap="butt"
         stroke-linejoin="miter"
         id="g273">
        <path
           stroke="rgb(  0,   0,   0)"
           d="M149.2,793.1 L159.2,790.6 L169.2,788.1 L179.3,785.7 L189.3,783.2 L199.3,780.7 L209.3,778.2 L219.4,775.7   L229.4,773.2 L239.4,770.8 L249.4,768.3 L259.4,765.8 L269.5,763.3 L279.5,760.8 L289.5,758.3 L299.5,755.9   L309.6,753.4 L319.6,750.9 L329.6,748.4 L339.6,745.9 L349.6,743.4 L359.7,741.0 L369.7,738.5 L379.7,736.0   L389.7,733.5 L399.8,731.0 L409.8,728.5 L419.8,726.1 L429.8,723.6 L439.8,721.1 L449.9,718.6 L459.9,716.1   L469.9,713.6 L479.9,711.2 L490.0,708.7 L500.0,706.2 L510.0,703.7 L520.0,701.2 L530.0,698.7 L540.1,696.3   L550.1,693.8 L560.1,691.3 L570.1,688.8 L580.2,686.3 L590.2,683.8 L600.2,681.4 L610.2,678.9 L620.2,676.4   L630.3,673.9 L640.3,671.4 L650.3,668.9 L660.3,666.5 L670.4,664.0 L680.4,661.5 L690.4,659.0 L700.4,656.5   L710.4,654.0 L720.5,651.6 L730.5,649.1 L740.5,646.6 L750.5,644.1 L760.6,641.6 L770.6,639.1 L780.6,636.6   L790.6,634.2 L800.6,631.7 L810.7,629.2 L820.7,626.7 L830.7,624.2 L840.7,621.7 L850.8,619.3 L860.8,616.8   L870.8,614.3 L880.8,611.8 L890.8,609.3 L900.9,606.8 L910.9,604.4 L920.9,601.9 L930.9,599.4 L941.0,596.9   L951.0,594.4 L961.0,591.9 L971.0,589.5 L981.0,587.0 L991.1,584.5 L1001.1,582.0 L1011.1,579.5 L1021.1,577.0   L1031.2,574.6 L1041.2,572.1 L1051.2,569.6 L1061.2,567.1 L1071.2,564.6 L1081.3,562.1 L1091.3,559.7 L1101.3,557.2   L1111.3,554.7 L1121.4,552.2 L1131.4,549.7 L1141.4,547.2  "
           id="path271" />
      </g>
    </g>
    <g
       id="gnuplot_plot_5">
      <title
         id="title276"> 4-NO2C6H4N2+ TfO-  1c</title>
      <g
         fill="none"
         color="black"
         stroke="currentColor"
         stroke-width="3.50"
         stroke-linecap="butt"
         stroke-linejoin="miter"
         id="g284">
        <use
           xlink:href="#gpPt2"
           transform="translate(1065.2,725.8) scale(10.50)"
           color="rgb(  0,   0,   0)"
           id="use278" />
        <use
           xlink:href="#gpPt2"
           transform="translate(661.7,814.1) scale(10.50)"
           color="rgb(  0,   0,   0)"
           id="use280" />
        <use
           xlink:href="#gpPt2"
           transform="translate(269.5,939.6) scale(10.50)"
           color="rgb(  0,   0,   0)"
           id="use282" />
      </g>
    </g>
    <g
       id="gnuplot_plot_6">
      <title
         id="title287">gnuplot_plot_6</title>
      <g
         fill="none"
         color="black"
         stroke="currentColor"
         stroke-width="3.50"
         stroke-linecap="butt"
         stroke-linejoin="miter"
         id="g291">
        <path
           stroke="rgb(  0,   0,   0)"
           d="M149.2,965.1 L159.2,962.4 L169.2,959.7 L179.3,957.0 L189.3,954.3 L199.3,951.6 L209.3,949.0 L219.4,946.3   L229.4,943.6 L239.4,940.9 L249.4,938.2 L259.4,935.5 L269.5,932.8 L279.5,930.1 L289.5,927.4 L299.5,924.7   L309.6,922.1 L319.6,919.4 L329.6,916.7 L339.6,914.0 L349.6,911.3 L359.7,908.6 L369.7,905.9 L379.7,903.2   L389.7,900.5 L399.8,897.9 L409.8,895.2 L419.8,892.5 L429.8,889.8 L439.8,887.1 L449.9,884.4 L459.9,881.7   L469.9,879.0 L479.9,876.3 L490.0,873.6 L500.0,871.0 L510.0,868.3 L520.0,865.6 L530.0,862.9 L540.1,860.2   L550.1,857.5 L560.1,854.8 L570.1,852.1 L580.2,849.4 L590.2,846.7 L600.2,844.1 L610.2,841.4 L620.2,838.7   L630.3,836.0 L640.3,833.3 L650.3,830.6 L660.3,827.9 L670.4,825.2 L680.4,822.5 L690.4,819.8 L700.4,817.2   L710.4,814.5 L720.5,811.8 L730.5,809.1 L740.5,806.4 L750.5,803.7 L760.6,801.0 L770.6,798.3 L780.6,795.6   L790.6,792.9 L800.6,790.3 L810.7,787.6 L820.7,784.9 L830.7,782.2 L840.7,779.5 L850.8,776.8 L860.8,774.1   L870.8,771.4 L880.8,768.7 L890.8,766.0 L900.9,763.4 L910.9,760.7 L920.9,758.0 L930.9,755.3 L941.0,752.6   L951.0,749.9 L961.0,747.2 L971.0,744.5 L981.0,741.8 L991.1,739.1 L1001.1,736.5 L1011.1,733.8 L1021.1,731.1   L1031.2,728.4 L1041.2,725.7 L1051.2,723.0 L1061.2,720.3 L1071.2,717.6 L1081.3,714.9 L1091.3,712.2 L1101.3,709.6   L1111.3,706.9 L1121.4,704.2 L1131.4,701.5 L1141.4,698.8  "
           id="path289" />
      </g>
    </g>
    <g
       id="gnuplot_plot_7">
      <title
         id="title294"> 4-CH3OC6H4N2+ TfO-  1d</title>
      <g
         fill="none"
         color="black"
         stroke="currentColor"
         stroke-width="3.50"
         stroke-linecap="butt"
         stroke-linejoin="miter"
         id="g302">
        <use
           xlink:href="#gpPt3"
           transform="translate(1065.2,385.5) scale(10.50)"
           color="rgb(  0,   0,   0)"
           id="use296" />
        <use
           xlink:href="#gpPt3"
           transform="translate(661.7,480.2) scale(10.50)"
           color="rgb(  0,   0,   0)"
           id="use298" />
        <use
           xlink:href="#gpPt3"
           transform="translate(269.5,616.8) scale(10.50)"
           color="rgb(  0,   0,   0)"
           id="use300" />
      </g>
    </g>
    <g
       id="gnuplot_plot_8">
      <title
         id="title305">gnuplot_plot_8</title>
      <g
         fill="none"
         color="black"
         stroke="currentColor"
         stroke-width="3.50"
         stroke-linecap="butt"
         stroke-linejoin="miter"
         id="g309">
        <path
           stroke="rgb(  0,   0,   0)"
           d="M149.2,644.1 L159.2,641.2 L169.2,638.3 L179.3,635.4 L189.3,632.4 L199.3,629.5 L209.3,626.6 L219.4,623.7   L229.4,620.8 L239.4,617.9 L249.4,615.0 L259.4,612.1 L269.5,609.2 L279.5,606.3 L289.5,603.3 L299.5,600.4   L309.6,597.5 L319.6,594.6 L329.6,591.7 L339.6,588.8 L349.6,585.9 L359.7,583.0 L369.7,580.1 L379.7,577.2   L389.7,574.2 L399.8,571.3 L409.8,568.4 L419.8,565.5 L429.8,562.6 L439.8,559.7 L449.9,556.8 L459.9,553.9   L469.9,551.0 L479.9,548.1 L490.0,545.1 L500.0,542.2 L510.0,539.3 L520.0,536.4 L530.0,533.5 L540.1,530.6   L550.1,527.7 L560.1,524.8 L570.1,521.9 L580.2,519.0 L590.2,516.0 L600.2,513.1 L610.2,510.2 L620.2,507.3   L630.3,504.4 L640.3,501.5 L650.3,498.6 L660.3,495.7 L670.4,492.8 L680.4,489.9 L690.4,486.9 L700.4,484.0   L710.4,481.1 L720.5,478.2 L730.5,475.3 L740.5,472.4 L750.5,469.5 L760.6,466.6 L770.6,463.7 L780.6,460.8   L790.6,457.8 L800.6,454.9 L810.7,452.0 L820.7,449.1 L830.7,446.2 L840.7,443.3 L850.8,440.4 L860.8,437.5   L870.8,434.6 L880.8,431.7 L890.8,428.8 L900.9,425.8 L910.9,422.9 L920.9,420.0 L930.9,417.1 L941.0,414.2   L951.0,411.3 L961.0,408.4 L971.0,405.5 L981.0,402.6 L991.1,399.7 L1001.1,396.7 L1011.1,393.8 L1021.1,390.9   L1031.2,388.0 L1041.2,385.1 L1051.2,382.2 L1061.2,379.3 L1071.2,376.4 L1081.3,373.5 L1091.3,370.6 L1101.3,367.6   L1111.3,364.7 L1121.4,361.8 L1131.4,358.9 L1141.4,356.0  "
           id="path307" />
      </g>
    </g>
    <g
       id="gnuplot_plot_9">
      <title
         id="title312"> 4-NO2C6H4N2+ TsO-  2</title>
      <g
         fill="none"
         color="black"
         stroke="currentColor"
         stroke-width="3.50"
         stroke-linecap="butt"
         stroke-linejoin="miter"
         id="g320">
        <use
           xlink:href="#gpPt1"
           transform="translate(1065.2,705.3) scale(10.50)"
           color="rgb(  0,   0,   0)"
           id="use314" />
        <use
           xlink:href="#gpPt1"
           transform="translate(661.7,785.0) scale(10.50)"
           color="rgb(  0,   0,   0)"
           id="use316" />
        <use
           xlink:href="#gpPt1"
           transform="translate(269.5,867.9) scale(10.50)"
           color="rgb(  0,   0,   0)"
           id="use318" />
      </g>
    </g>
    <g
       id="gnuplot_plot_10">
      <title
         id="title323">gnuplot_plot_10</title>
      <g
         fill="none"
         color="black"
         stroke="currentColor"
         stroke-width="3.50"
         stroke-linecap="butt"
         stroke-linejoin="miter"
         id="g327">
        <path
           stroke="rgb(  0,   0,   0)"
           d="M149.2,891.5 L159.2,889.5 L169.2,887.4 L179.3,885.4 L189.3,883.4 L199.3,881.3 L209.3,879.3 L219.4,877.2   L229.4,875.2 L239.4,873.1 L249.4,871.1 L259.4,869.0 L269.5,867.0 L279.5,864.9 L289.5,862.9 L299.5,860.8   L309.6,858.8 L319.6,856.7 L329.6,854.7 L339.6,852.6 L349.6,850.6 L359.7,848.5 L369.7,846.5 L379.7,844.5   L389.7,842.4 L399.8,840.4 L409.8,838.3 L419.8,836.3 L429.8,834.2 L439.8,832.2 L449.9,830.1 L459.9,828.1   L469.9,826.0 L479.9,824.0 L490.0,821.9 L500.0,819.9 L510.0,817.8 L520.0,815.8 L530.0,813.7 L540.1,811.7   L550.1,809.6 L560.1,807.6 L570.1,805.5 L580.2,803.5 L590.2,801.5 L600.2,799.4 L610.2,797.4 L620.2,795.3   L630.3,793.3 L640.3,791.2 L650.3,789.2 L660.3,787.1 L670.4,785.1 L680.4,783.0 L690.4,781.0 L700.4,778.9   L710.4,776.9 L720.5,774.8 L730.5,772.8 L740.5,770.7 L750.5,768.7 L760.6,766.6 L770.6,764.6 L780.6,762.5   L790.6,760.5 L800.6,758.5 L810.7,756.4 L820.7,754.4 L830.7,752.3 L840.7,750.3 L850.8,748.2 L860.8,746.2   L870.8,744.1 L880.8,742.1 L890.8,740.0 L900.9,738.0 L910.9,735.9 L920.9,733.9 L930.9,731.8 L941.0,729.8   L951.0,727.7 L961.0,725.7 L971.0,723.6 L981.0,721.6 L991.1,719.6 L1001.1,717.5 L1011.1,715.5 L1021.1,713.4   L1031.2,711.4 L1041.2,709.3 L1051.2,707.3 L1061.2,705.2 L1071.2,703.2 L1081.3,701.1 L1091.3,699.1 L1101.3,697.0   L1111.3,695.0 L1121.4,692.9 L1131.4,690.9 L1141.4,688.8  "
           id="path325" />
      </g>
    </g>
    <g
       id="gnuplot_plot_11">
      <title
         id="title330"> 4-NO2C6H4N2+ BF4-  3</title>
      <g
         fill="none"
         color="black"
         stroke="currentColor"
         stroke-width="3.50"
         stroke-linecap="butt"
         stroke-linejoin="miter"
         id="g338">
        <use
           xlink:href="#gpPt0"
           transform="translate(1065.2,687.9) scale(10.50)"
           color="rgb(  0,   0,   0)"
           id="use332" />
        <use
           xlink:href="#gpPt0"
           transform="translate(661.7,766.6) scale(10.50)"
           color="rgb(  0,   0,   0)"
           id="use334" />
        <use
           xlink:href="#gpPt0"
           transform="translate(269.5,861.2) scale(10.50)"
           color="rgb(  0,   0,   0)"
           id="use336" />
      </g>
    </g>
    <g
       id="gnuplot_plot_12">
      <title
         id="title341">gnuplot_plot_12</title>
      <g
         fill="none"
         color="black"
         stroke="currentColor"
         stroke-width="3.50"
         stroke-linecap="butt"
         stroke-linejoin="miter"
         id="g345">
        <path
           stroke="rgb(  0,   0,   0)"
           d="M149.2,884.3 L159.2,882.1 L169.2,879.9 L179.3,877.8 L189.3,875.6 L199.3,873.4 L209.3,871.2 L219.4,869.0   L229.4,866.9 L239.4,864.7 L249.4,862.5 L259.4,860.3 L269.5,858.1 L279.5,855.9 L289.5,853.8 L299.5,851.6   L309.6,849.4 L319.6,847.2 L329.6,845.0 L339.6,842.9 L349.6,840.7 L359.7,838.5 L369.7,836.3 L379.7,834.1   L389.7,831.9 L399.8,829.8 L409.8,827.6 L419.8,825.4 L429.8,823.2 L439.8,821.0 L449.9,818.8 L459.9,816.7   L469.9,814.5 L479.9,812.3 L490.0,810.1 L500.0,807.9 L510.0,805.8 L520.0,803.6 L530.0,801.4 L540.1,799.2   L550.1,797.0 L560.1,794.8 L570.1,792.7 L580.2,790.5 L590.2,788.3 L600.2,786.1 L610.2,783.9 L620.2,781.8   L630.3,779.6 L640.3,777.4 L650.3,775.2 L660.3,773.0 L670.4,770.8 L680.4,768.7 L690.4,766.5 L700.4,764.3   L710.4,762.1 L720.5,759.9 L730.5,757.7 L740.5,755.6 L750.5,753.4 L760.6,751.2 L770.6,749.0 L780.6,746.8   L790.6,744.7 L800.6,742.5 L810.7,740.3 L820.7,738.1 L830.7,735.9 L840.7,733.7 L850.8,731.6 L860.8,729.4   L870.8,727.2 L880.8,725.0 L890.8,722.8 L900.9,720.7 L910.9,718.5 L920.9,716.3 L930.9,714.1 L941.0,711.9   L951.0,709.7 L961.0,707.6 L971.0,705.4 L981.0,703.2 L991.1,701.0 L1001.1,698.8 L1011.1,696.6 L1021.1,694.5   L1031.2,692.3 L1041.2,690.1 L1051.2,687.9 L1061.2,685.7 L1071.2,683.6 L1081.3,681.4 L1091.3,679.2 L1101.3,677.0   L1111.3,674.8 L1121.4,672.6 L1131.4,670.5 L1141.4,668.3  "
           id="path343" />
      </g>
    </g>
    <g
       fill="none"
       color="white"
       stroke="rgb(  0,   0,   0)"
       stroke-width="2.00"
       stroke-linecap="butt"
       stroke-linejoin="miter"
       id="g348" />
    <g
       fill="none"
       color="black"
       stroke="currentColor"
       stroke-width="2.00"
       stroke-linecap="butt"
       stroke-linejoin="miter"
       id="g350" />
    <g
       fill="none"
       color="black"
       stroke="black"
       stroke-width="1.00"
       stroke-linecap="butt"
       stroke-linejoin="miter"
       id="g352" />
    <g
       fill="none"
       color="black"
       stroke="currentColor"
       stroke-width="1.00"
       stroke-linecap="butt"
       stroke-linejoin="miter"
       id="g356">
      <path
         stroke="black"
         d="M149.2,42.1 L149.2,1065.6 L1141.4,1065.6 L1141.4,42.1 L149.2,42.1 Z  "
         id="path354" />
    </g>
    <g
       fill="none"
       color="black"
       stroke="currentColor"
       stroke-width="1.00"
       stroke-linecap="butt"
       stroke-linejoin="miter"
       id="g358" />
  </g>
</svg>
